# xmcd
#
# Track frame offsets:
#	150
#	18351
#	34079
#	50573
#	67066
#	82685
#	98304
#	114033
#	130091
#	147238
#
# Disc length: 2202 seconds
#
# Revision: 1
# Processed by: cddbd v1.4PL0 Copyright (c) Steve Scherf et al.
# Submitted via: EasyCDDAExtractor 6.2.0.3
#
DISCID=7208980a
DTITLE=Anastacia - The Video Collection
DYEAR=2003
DGENRE=Soul
TTITLE0=I'm outta Love
TTITLE1=Not That Kind
TTITLE2=Cowboys and kisses
TTITLE3=Made for Lovin' you
TTITLE4=Paid my dues
TTITLE5=One day in your life (u.s. version)
TTITLE6=One day in your life (int. version)
TTITLE7=Boom
TTITLE8=Why'd you lie to me
TTITLE9=You'll never be alone
EXTD=
EXTT0=
EXTT1=
EXTT2=
EXTT3=
EXTT4=
EXTT5=
EXTT6=
EXTT7=
EXTT8=
EXTT9=
PLAYORDER=
